<?xml version="1.0" encoding="UTF-8"?>
<svg version="1.1" xmlns="http://www.w3.org/2000/svg" width="843" height="596">
<path d="M0 0 C1.30419922 1.73510742 1.30419922 1.73510742 2.3046875 4.10546875 C2.71154785 5.04229492 3.1184082 5.97912109 3.53759766 6.94433594 C4.19961182 8.54970215 4.19961182 8.54970215 4.875 10.1875 C5.36403809 11.32864258 5.85307617 12.46978516 6.35693359 13.64550781 C7.53520167 16.39551304 8.69980161 19.15090886 9.85742188 21.90966797 C12.39533518 27.95184922 14.97236745 33.97724836 17.546875 40.00390625 C20.55429517 47.04706722 23.5594767 54.09112682 26.55029297 61.14135742 C32.62531157 75.46067624 38.76913017 89.74777162 45 104 C46.96285585 101.05571622 48.4704839 98.09518677 50.0625 94.9375 C53.56448319 88.39949395 57.70240772 83.22177701 63 78 C63.58652344 77.40316406 64.17304687 76.80632812 64.77734375 76.19140625 C74.97182129 66.57261686 88.02986751 66.5524138 101.19921875 66.7265625 C115.78263138 67.19963932 127.87795214 73.83469562 137.828125 84.40234375 C152.31457092 101.72875838 160.22050356 124.28257961 168.94140625 144.8203125 C172.03929653 152.10958348 175.18583406 159.3752129 178.375 166.625 C178.8505835 167.72038086 179.32616699 168.81576172 179.81616211 169.94433594 C185.33303043 183.70761734 185.33303043 183.70761734 196 193 C201.4791728 193.75030114 205.82353995 192.88234911 211 191 C213.75 190.75 213.75 190.75 216 191 C218 193 218 193 218.125 196.125 C218.063125 197.548125 218.063125 197.548125 218 199 C207.01810646 203.7065258 196.03621292 208.41305161 185.05431938 213.11957741 C184.42151117 213.39078093 183.78870296 213.66198444 183.13671875 213.94140625 C168.72998047 220.11572266 168.72998047 220.11572266 165.40570068 221.52813721 C162.99276383 222.5709511 160.60132957 223.63529674 158.21392822 224.73309326 C157.58658342 225.01613501 156.95923862 225.29917675 156.31288338 225.59079552 C154.56193651 226.38183741 152.81679825 227.1857001 151.072052 227.99032593 C147.79891802 229.06608849 146.22939956 229.08206685 143 228 C142 227 142 227 141.9375 223.9375 C141.958125 222.968125 141.97875 221.99875 142 221 C142.89203125 220.55269531 143.7840625 220.10539063 144.703125 219.64453125 C145.87359375 219.03996094 147.0440625 218.43539062 148.25 217.8125 C149.41015625 217.22082031 150.5703125 216.62914062 151.765625 216.01953125 C156.04203877 213.34935502 158.40383052 210.78850845 160 206 C160.34863409 200.24584148 159.64651019 195.9662656 157.38671875 190.63671875 C157.10532043 189.94317795 156.82392212 189.24963715 156.53399658 188.53507996 C155.59978012 186.24623069 154.64452478 183.96689715 153.6875 181.6875 C153.02039385 180.07264346 152.35382001 178.45756693 151.68774414 176.84228516 C146.2730696 163.78130389 140.6303226 150.81671037 134.9375 137.875 C134.53526215 136.95834564 134.13302429 136.04169128 133.71859741 135.09725952 C124.34578451 111.09643326 124.34578451 111.09643326 105.60546875 94.91015625 C97.68862503 92.14460215 90.64211672 92.55478345 83 96 C80.05354546 97.73536735 77.52791705 99.70239209 75 102 C74.47792969 102.46792969 73.95585938 102.93585938 73.41796875 103.41796875 C66.70455995 110.30851235 60.46538904 123.49328858 59 133 C59.51434587 138.83229438 61.84621228 143.77372479 64.1640625 149.07421875 C64.58843094 150.05931427 65.01279938 151.04440979 65.45002747 152.05935669 C66.83542759 155.27148272 68.23008058 158.47949787 69.625 161.6875 C70.58273938 163.90231697 71.53984801 166.1174068 72.49633789 168.33276367 C74.4186336 172.78384111 76.34397021 177.23358584 78.27099609 181.68261719 C80.70722252 187.31381613 83.1199246 192.95467639 85.51953125 198.6015625 C86.19514797 200.18920974 86.8707664 201.77685625 87.54638672 203.36450195 C88.47748436 205.5531043 89.40769263 207.74205607 90.33453369 209.9324646 C96.78578216 228.14512204 96.78578216 228.14512204 110 241 C115.54822741 241.47218957 120.05324564 240.29584375 125.3515625 238.65625 C128.01058091 237.99737818 130.27323072 237.88187281 133 238 C134.35439668 240.70879335 134.06501451 243.00933268 134 246 C122.52436611 251.49589349 110.87167168 256.48969151 99.125 261.375 C96.52485179 262.45731229 93.9251128 263.54055737 91.32662964 264.62686157 C89.72616481 265.2958954 88.12473671 265.96263062 86.52224731 266.62680054 C83.00651467 267.90051083 83.00651467 267.90051083 80 270 C79.96136013 271.64153485 79.98844246 273.28469729 80.04296875 274.92578125 C80.5714724 297.05643406 80.5714724 297.05643406 76 306 C75.36384766 307.27617188 75.36384766 307.27617188 74.71484375 308.578125 C66.85345386 322.85563533 53.50399537 334.75457835 38 340 C25.4359681 343.5615772 13.22377826 345.15505091 0.18164062 345.51757812 C-5.48857193 345.72469133 -10.60096418 346.1880369 -16 348 C-19.15006273 352.7250941 -18.21071372 357.52500394 -17.4375 362.9375 C-17.293125 363.948125 -17.14875 364.95875 -17 366 C-17.33 366.33 -17.66 366.66 -18 367 C-20.33944736 366.71269945 -22.6739143 366.38063221 -25 366 C-28.18956988 358.50846642 -30.63598424 350.91605846 -32.890625 343.09765625 C-33.24010193 341.89813828 -33.58957886 340.6986203 -33.949646 339.4627533 C-34.86741331 336.30701227 -35.78040589 333.14993843 -36.69165039 329.99230957 C-37.43953377 327.40741925 -38.1941755 324.82452233 -38.94882584 322.24160099 C-39.85014617 319.15312799 -40.745168 316.06283343 -41.640625 312.97265625 C-41.97805725 311.81645279 -42.3154895 310.66024933 -42.66314697 309.4690094 C-42.97056824 308.40037155 -43.2779895 307.3317337 -43.59472656 306.23071289 C-43.86690002 305.29046768 -44.13907349 304.35022247 -44.41949463 303.38148499 C-45 301 -45 301 -45 298 C-45.66 298 -46.32 298 -47 298 C-47.03158203 298.57830566 -47.06316406 299.15661133 -47.09570312 299.75244141 C-47.63597451 306.95653382 -49.34102167 313.49823517 -51.5 320.375 C-51.85457275 321.51042236 -52.20914551 322.64584473 -52.57446289 323.81567383 C-63.5674682 358.03936228 -83.40752155 390.12499747 -115.96923828 407.28515625 C-151.05438168 425.03440888 -196.73927476 429.32179655 -235 421 C-236.00256836 420.7831958 -236.00256836 420.7831958 -237.02539062 420.56201172 C-257.25046403 416.00985786 -276.35395332 407.777065 -292 394 C-292.81726563 393.31421875 -293.63453125 392.6284375 -294.4765625 391.921875 C-322.73806653 367.59773221 -335.33385093 331.79236174 -341 296 C-348.87396792 319.87279359 -348.87396792 319.87279359 -345 344 C-340.92065534 350.78728571 -335.07043583 355.87665893 -329.16015625 361.03125 C-328.44730469 361.6809375 -327.73445312 362.330625 -327 363 C-327 363.33 -327 363.66 -327 364 C-334.15407149 363.50416491 -340.80322272 362.22696913 -347.71484375 360.34765625 C-348.69240128 360.08746201 -349.6699588 359.82726776 -350.67713928 359.55918884 C-352.72432351 359.01236876 -354.77049581 358.4617471 -356.81567383 357.9074707 C-359.95064134 357.05894309 -363.08922243 356.22494237 -366.22851562 355.39257812 C-368.22418696 354.85762302 -370.21963795 354.32184505 -372.21484375 353.78515625 C-373.15230942 353.53613052 -374.08977509 353.2871048 -375.0556488 353.03053284 C-375.92407913 352.79366257 -376.79250946 352.5567923 -377.68725586 352.31274414 C-378.44985214 352.10702286 -379.21244843 351.90130157 -379.99815369 351.68934631 C-382 351 -382 351 -385 349 C-384.85616078 347.47897677 -384.70980986 345.95819103 -384.5625 344.4375 C-384.44068359 343.16712891 -384.44068359 343.16712891 -384.31640625 341.87109375 C-383.95245159 338.56854219 -383.48349838 335.28697639 -383 332 C-383.82242188 332.40992188 -384.64484375 332.81984375 -385.4921875 333.2421875 C-401.02073632 340.73749166 -414.52209576 341.84335345 -431.03515625 336.68896484 C-440.49615697 333.37150162 -448.57237269 327.61084355 -456 321 C-456.70898438 320.37351562 -457.41796875 319.74703125 -458.1484375 319.1015625 C-467.98168288 309.87112143 -475.18798575 297.19795647 -476.17700195 283.55908203 C-476.81945935 256.81135389 -469.81248712 233.10032352 -451.18359375 213.21484375 C-436.94420656 198.77167285 -418.83462029 192.19013086 -398.6875 191.6875 C-381.9290157 191.96166743 -366.29942152 196.26070394 -354 208 C-352.96578622 209.30697346 -351.95311198 210.6327563 -351 212 C-348.74822481 205.54637626 -346.88305374 199.0480128 -345.18432617 192.42919922 C-344.92042587 191.41144409 -344.65652557 190.39368896 -344.3846283 189.34509277 C-343.51778521 185.99904821 -342.65536552 182.65188053 -341.79296875 179.3046875 C-341.18414347 176.95119094 -340.57503307 174.59776812 -339.96565247 172.24441528 C-338.36234873 166.04963905 -336.76275981 159.85390962 -335.16400146 153.65795898 C-333.55610465 147.42897938 -331.94498379 141.20083402 -330.33398438 134.97265625 C-328.51217365 127.92914893 -326.6906168 120.88557777 -324.87187195 113.84127808 C-324.45506401 112.22776301 -324.45506401 112.22776301 -324.0298357 110.58165169 C-323.48479208 108.47049081 -322.94048456 106.35913974 -322.39696026 104.2475872 C-321.05169399 99.0294274 -319.6877512 93.81727169 -318.29019165 88.612854 C-318.01459317 87.57925814 -317.73899469 86.54566227 -317.45504475 85.48074532 C-316.93710567 83.5415518 -316.41412834 81.6036932 -315.88488293 79.66755486 C-313.53089237 70.82429916 -311.36636785 62.41035973 -316 54 C-319.84728537 49.53794222 -324.85124907 46.73199029 -330 44 C-330 42.02 -330 40.04 -330 38 C-327.76376573 36.62852303 -326.48004514 35.9553861 -323.83079529 36.20159912 C-322.65856163 36.51898041 -322.65856163 36.51898041 -321.46264648 36.84277344 C-320.57169785 37.07671814 -319.68074921 37.31066284 -318.76280212 37.55169678 C-317.80853836 37.81823059 -316.8542746 38.0847644 -315.87109375 38.359375 C-314.88504654 38.62381409 -313.89899933 38.88825317 -312.8830719 39.16070557 C-310.7992139 39.72249329 -308.71720458 40.29117694 -306.63696289 40.86621094 C-303.45009654 41.74652045 -300.25807503 42.60549867 -297.06445312 43.4609375 C-295.04132932 44.00917328 -293.01853109 44.55861224 -290.99609375 45.109375 C-290.03980576 45.36781189 -289.08351776 45.62624878 -288.09825134 45.89251709 C-287.21045486 46.13907043 -286.32265839 46.38562378 -285.40795898 46.63964844 C-284.62726547 46.85441833 -283.84657196 47.06918823 -283.04222107 47.29046631 C-281 48 -281 48 -278 50 C-277.34201249 55.89222595 -278.84202504 61.13329004 -280.38330078 66.79296875 C-280.63700943 67.7519104 -280.89071808 68.71085205 -281.15211487 69.69885254 C-281.99167832 72.86397247 -282.84345628 76.02566849 -283.6953125 79.1875 C-284.28705841 81.40905531 -284.87801817 83.63082015 -285.4682312 85.8527832 C-287.02668886 91.71168813 -288.59542522 97.56779214 -290.16644287 103.42333984 C-291.74181006 109.30150075 -293.30822516 115.18204415 -294.875 121.0625 C-296.64818308 127.71655314 -298.42209425 134.37039806 -300.2036438 141.0222168 C-301.80806304 147.01331733 -303.40548787 153.00625603 -305 159 C-305.42763767 160.60322113 -305.42763767 160.60322113 -305.86391449 162.23883057 C-306.71519756 165.43551934 -307.56119534 168.63356219 -308.40576172 171.83203125 C-308.6669385 172.81024338 -308.92811527 173.78845551 -309.1972065 174.79631042 C-309.43432287 175.69859879 -309.67143925 176.60088715 -309.91574097 177.53051758 C-310.12578703 178.32363846 -310.33583309 179.11675934 -310.55224419 179.93391418 C-311.10590014 182.13631527 -311.10590014 182.13631527 -311 185 C-310.28714844 184.154375 -309.57429687 183.30875 -308.83984375 182.4375 C-306.85242318 180.08072346 -304.85749733 177.73051892 -302.859375 175.3828125 C-301.27756481 173.52167878 -299.72439368 171.65369467 -298.203125 169.7421875 C-289.42685015 158.9301788 -277.22253135 151.3440758 -265 145 C-264.1234375 144.54109375 -263.246875 144.0821875 -262.34375 143.609375 C-229.32681333 127.50852317 -186.36629813 124.75385933 -151 134 C-150.25637207 134.18191895 -149.51274414 134.36383789 -148.74658203 134.55126953 C-137.26643835 137.38771925 -126.61954248 141.84455454 -116 147 C-115.32130859 147.3290332 -114.64261719 147.65806641 -113.94335938 147.99707031 C-95.66374275 156.99336839 -80.17050674 169.81672666 -69 187 C-69 187.66 -69 188.32 -69 189 C-68.34 189 -67.68 189 -67 189 C-66.690625 187.7934375 -66.690625 187.7934375 -66.375 186.5625 C-64.55895142 181.85728321 -61.95418286 178.06467087 -59 174 C-58.33677734 173.06607422 -58.33677734 173.06607422 -57.66015625 172.11328125 C-48.93838663 160.86346247 -33.7184577 154.982012 -20 153 C-14.71445459 152.52438945 -9.42343165 152.22081549 -4.125 151.9375 C-2.02194348 151.82144101 0.08093752 151.70328516 2.18362427 151.58070374 C4.07511245 151.47091373 5.96699309 151.36794736 7.85888672 151.26538086 C10.38386403 151.05205501 12.58374893 150.72307606 15 150 C16.01264011 143.32204902 15.83542937 138.47798602 14 132 C13.6875 128.625 13.6875 128.625 14 126 C17 124 17 124 19 124 C22.77072704 125.88536352 23.77469547 130.34703175 25.08880615 134.15553284 C25.42269348 135.28184616 25.75658081 136.40815948 26.10058594 137.56860352 C26.28794815 138.1954303 26.47531036 138.82225708 26.66835022 139.46807861 C27.27971602 141.51995674 27.88256326 143.57420725 28.484375 145.62890625 C28.90829687 147.06571913 29.33239227 148.50248082 29.75665283 149.93919373 C30.64148295 152.94127479 31.52161597 155.94468776 32.39892578 158.94897461 C33.52274765 162.79465288 34.66220143 166.63550437 35.80569077 170.47537327 C36.68505633 173.43710431 37.55408379 176.40179482 38.42023468 179.36741447 C38.83602749 180.78503459 39.2554848 182.20158533 39.67870331 183.6170063 C40.26897215 185.59528315 40.84468222 187.57725609 41.41699219 189.56079102 C41.91304962 191.24906761 41.91304962 191.24906761 42.41912842 192.97145081 C43.01480346 196.07718233 42.91938351 197.99758122 42 201 C41 202 41 202 38.1875 202.375 C35 202 35 202 33.03515625 199.8046875 C31.0934181 197.12874126 29.15973786 194.44888574 27.25 191.75 C20.7797961 182.88032935 14.94254778 175.97927916 5 171 C4.03126953 170.50693359 4.03126953 170.50693359 3.04296875 170.00390625 C-8.11572146 165.09408256 -19.66001165 166.90125251 -30.69140625 171 C-38.41925877 174.39789546 -44.0539664 179.71872608 -47.5625 187.4375 C-48.52445331 195.27054839 -47.62500688 202.45144285 -43 209 C-32.27996516 221.35578947 -13.73775828 222.87842484 1.41796875 225.44140625 C2.17357086 225.56942123 2.92917297 225.69743622 3.70767212 225.82933044 C7.51916063 226.47280213 11.33198888 227.10512548 15.1484375 227.71850586 C27.46343822 229.72738987 40.15379821 231.84346831 51.3125 237.6875 C51.9734668 238.0263623 52.63443359 238.36522461 53.31542969 238.71435547 C61.44257184 243.06350695 68.43500945 248.90751675 73 257 C75.42685293 254.57314707 75.69161357 252.67958236 76.03530884 249.32588196 C75.92374972 241.97720246 72.13448561 234.55900819 69.2265625 227.92578125 C68.68736176 226.67674767 68.68736176 226.67674767 68.13726807 225.40248108 C67.36975076 223.62599411 66.59979671 221.8505582 65.82757568 220.07611084 C63.76468841 215.3354382 61.71988248 210.58695848 59.671875 205.83984375 C59.2635141 204.89477966 58.8551532 203.94971558 58.43441772 202.97601318 C55.19149145 195.46529252 52.01728297 187.92843144 48.875 180.375 C41.89873657 163.65373671 34.74462075 147.00864972 27.59521484 130.36083984 C26.81044069 128.53344155 26.0256666 126.70604323 25.24090576 124.87863922 C24.71186734 123.64674669 24.1827941 122.41486911 23.65368652 121.18300629 C19.82596671 112.27036246 16.01533431 103.35057807 12.21622658 94.42570305 C10.59556851 90.61986801 8.97226288 86.81516131 7.34895229 83.01045704 C6.05979432 79.98823077 4.77296749 76.96504425 3.48934937 73.94046021 C-5.91793452 47.3805106 -5.91793452 47.3805106 -22.875 26 C-29.62957329 23.83853655 -34.51671424 24.98988792 -40.953125 27.3203125 C-43.4429273 28.14707891 -45.4055585 28.47171664 -48 28 C-50.31361802 24.52957297 -50.51020728 23.08165827 -50 19 C-46.97115954 16.1808904 -43.48675333 14.80523042 -39.6875 13.2578125 C-39.07793457 13.00756317 -38.46836914 12.75731384 -37.84033203 12.4994812 C-35.89573323 11.70252922 -33.94800589 10.91358218 -32 10.125 C-30.08829951 9.34450619 -28.17726534 8.56240029 -26.26635742 7.77996826 C-25.008434 7.26641498 -23.74948195 6.75537389 -22.48950195 6.24688721 C-19.49008952 5.03437758 -16.51768185 3.78501217 -13.5625 2.46777344 C-12.510625 2.00145508 -11.45875 1.53513672 -10.375 1.0546875 C-9.45460938 0.63429199 -8.53421875 0.21389648 -7.5859375 -0.21923828 C-4.54167544 -1.13838009 -2.96679177 -1.13757353 0 0 Z M-253.96875 178.25390625 C-260.86855049 186.38267883 -265.81036438 195.23161593 -270 205 C-270.30921387 205.71752441 -270.61842773 206.43504883 -270.93701172 207.17431641 C-279.65852782 227.9044438 -283.23067194 249.74212391 -283.25 272.125 C-283.25067474 272.83008698 -283.25134949 273.53517395 -283.25204468 274.2616272 C-283.19638423 311.10520232 -275.15073379 349.77633821 -250 378 C-249.25234375 378.84175781 -248.5046875 379.68351563 -247.734375 380.55078125 C-236.4427768 392.5526574 -222.09492195 400.23747375 -205.51171875 401.203125 C-179.75745106 401.5188055 -157.55373233 393.53004402 -138.66210938 375.65771484 C-113.79856388 350.85990727 -103.02051063 313.88262857 -102.61914062 279.57421875 C-102.67755229 240.20475806 -111.47468602 202.71740364 -140 174 C-156.37191161 158.44377082 -178.08166826 151.31238466 -200.39453125 151.73046875 C-221.41476513 152.63051251 -240.11924832 162.71913696 -253.96875 178.25390625 Z M-430.78515625 220.625 C-443.4953103 234.25423044 -447.6836551 250.23439294 -447.23828125 268.41015625 C-446.57328209 284.13755012 -441.57979182 298.6736737 -430.625 310.125 C-421.30527728 318.68629012 -410.62899155 324.80199182 -397.6484375 324.3515625 C-390.02774875 323.33996665 -381.95676215 321.07203364 -377 315 C-372.67196276 303.91635203 -370.22980153 291.84616781 -367.19897461 280.35888672 C-366.30703625 276.97929766 -365.41064682 273.60091166 -364.51367188 270.22265625 C-363.94244808 268.06517306 -363.37147544 265.90762335 -362.80078125 263.75 C-362.53413162 262.74477295 -362.26748199 261.7395459 -361.99275208 260.70385742 C-361.7454686 259.76517822 -361.49818512 258.82649902 -361.2434082 257.859375 C-360.91842094 256.62912598 -360.91842094 256.62912598 -360.58686829 255.37402344 C-357.52791653 242.99982748 -358.09621785 231.02768675 -364.73046875 219.99609375 C-365.14941406 219.33738281 -365.56835938 218.67867187 -366 218 C-366.556875 217.113125 -367.11375 216.22625 -367.6875 215.3125 C-374.54196199 208.45803801 -383.53302603 204.74109763 -393.10546875 203.98046875 C-407.64002842 204.0785427 -420.46310194 210.72118128 -430.78515625 220.625 Z M-45 252 C-45.12363227 256.35984461 -45.21434908 260.71876055 -45.2746582 265.07983398 C-45.2997981 266.56308768 -45.33391592 268.04621753 -45.37719727 269.52905273 C-45.43788258 271.66160595 -45.46621116 273.79252205 -45.48828125 275.92578125 C-45.51446533 277.20880127 -45.54064941 278.49182129 -45.56762695 279.8137207 C-45.34729967 283.18003527 -45.34729967 283.18003527 -42.54858398 284.78613281 C-41.70755127 285.18670898 -40.86651855 285.58728516 -40 286 C-38.734375 288.49609375 -38.734375 288.49609375 -37.75 291.4375 C-32.14230221 305.92989398 -20.76862642 317.08490745 -7 324 C6.23967719 329.57741448 20.6282918 331.63211811 34.31640625 326.3203125 C42.35660663 322.36458073 47.73886681 316.85265973 52 309 C54.08903308 302.73290075 53.91686433 295.11840477 51.21875 289.03515625 C42.22958996 274.02441144 27.18670406 269.79056729 11.20068359 265.75 C3.86994559 264.03222524 -3.53794777 262.67306918 -10.93237305 261.26098633 C-22.59191241 258.99184047 -33.74395942 255.75201353 -45 252 Z " fill="#FFFFFF" transform="translate(613,107)"/>
<path d="M0 0 C3.42142404 0.1033316 4.79841112 0.81910402 7.359375 3.1171875 C8.54273438 4.48230469 8.54273438 4.48230469 9.75 5.875 C10.1833667 6.36895264 10.6167334 6.86290527 11.06323242 7.37182617 C14.66153608 11.50544721 18.08085637 15.78438994 21.51953125 20.05078125 C24.9263669 24.10142836 28.54993269 27.92993291 32.17822266 31.78149414 C36.4353935 36.32587004 40.40970922 41.02034032 44.29296875 45.890625 C45.97675198 48.0466478 45.97675198 48.0466478 48 50 C47.625 52.625 47.625 52.625 47 55 C44.75 55.3125 44.75 55.3125 42 55 C40.63360658 53.3603279 39.3050581 51.68889872 38 50 C34.93671273 47.64997815 31.88340702 46.16916305 28.0625 45.4375 C20.47618805 46.83090424 15.11165377 52.54459972 9.62890625 57.6171875 C7.03083861 59.97204821 4.35886241 62.18004285 1.625 64.375 C-2.92940923 68.05701535 -7.23747565 71.92900357 -11.52124023 75.91577148 C-14.73263407 78.8868675 -18.02609763 81.69946588 -21.4375 84.4375 C-26.85908343 88.80140459 -31.92842117 93.4842153 -37.015625 98.2265625 C-41.63353761 102.53105514 -46.40761607 106.64312405 -51.2109375 110.73828125 C-52.41162041 111.76283092 -53.61213621 112.78757646 -54.8125 113.8125 C-55.41868164 114.32981689 -56.02486328 114.84713379 -56.64941406 115.38012695 C-60.3907082 118.58502229 -64.06115383 121.85209278 -67.6875 125.1875 C-71.16136309 128.37736844 -74.69910025 131.42048894 -78.375 134.375 C-83.16556098 138.2374751 -87.66263862 142.33686995 -92.14599609 146.54492188 C-96.44810363 150.55799561 -100.9158233 154.2546797 -105.5625 157.8671875 C-107.51045157 159.57164512 -109.02806259 161.14990754 -110.65234375 163.13330078 C-111.42707031 164.07931152 -112.20179687 165.02532227 -113 166 C-108.59521324 166.96945606 -104.18843683 167.92917452 -99.77978516 168.88085938 C-98.28802801 169.2041959 -96.79679163 169.52994687 -95.30615234 169.85839844 C-80.97378069 173.01326215 -66.7955497 175.36397816 -52.0625 175.3125 C-51.11310547 175.32861328 -50.16371094 175.34472656 -49.18554688 175.36132812 C-40.66622622 175.36719139 -33.38872587 173.97655001 -27 168 C-27.30384615 161.96911432 -30.01177147 159.14591746 -33.9375 154.9375 C-40.58192321 147.7180039 -40.58192321 147.7180039 -42 143 C-41.34 142.34 -40.68 141.68 -40 141 C-36.57857596 141.1033316 -35.20158888 141.81910402 -32.640625 144.1171875 C-31.85171875 145.02726563 -31.0628125 145.93734375 -30.25 146.875 C-29.6010376 147.61484131 -29.6010376 147.61484131 -28.93896484 148.36962891 C-25.32005908 152.52760497 -21.87349958 156.82650759 -18.4140625 161.1171875 C-15.22989787 164.91963652 -11.85401801 168.52133965 -8.46386719 172.1394043 C-4.34850527 176.55713283 -0.51318138 181.13827311 3.2578125 185.85546875 C4.97161512 188.04026003 4.97161512 188.04026003 7 190 C6.625 192.625 6.625 192.625 6 195 C3.38254852 195.39658356 1.60032954 195.37276276 -0.6796875 193.95703125 C-1.82346645 193.09030098 -2.9511211 192.20172671 -4.05859375 191.2890625 C-13.37172658 185.10529221 -26.73440812 187.62610863 -37.125 189.5 C-54.10905739 192.48145655 -70.71368296 191.28624315 -87.62670898 188.38891602 C-90.74454436 187.87799 -93.87149573 187.4402166 -97 187 C-98.04078279 199.66355253 -99.04324317 212.32981034 -100 225 C-100.08631683 226.14109222 -100.08631683 226.14109222 -100.17437744 227.30523682 C-101.34074286 242.84823888 -102.19906001 258.3877078 -102.35147095 273.97692871 C-102.36682351 275.41931302 -102.38832782 276.8616488 -102.4168396 278.30383301 C-102.64257403 290.84446954 -101.01630118 302.4304044 -93.85546875 313.03515625 C-92.71105871 315.66364141 -93.23627853 317.29651971 -94 320 C-96.25 320.2890625 -96.25 320.2890625 -99 320 C-101 318.0859375 -101 318.0859375 -103 315.375 C-106.62490047 310.67471239 -110.41667363 306.30692443 -114.5 302 C-119.1234674 297.09350384 -123.46431112 292.0583005 -127.6796875 286.79296875 C-130.40971597 283.50682337 -133.27725052 280.37615395 -136.1875 277.25 C-136.70022461 276.69699219 -137.21294922 276.14398438 -137.74121094 275.57421875 C-139.85986713 273.29152867 -141.9843351 271.01643954 -144.1328125 268.76171875 C-145.8125 266.9375 -145.8125 266.9375 -148 264 C-147.63671875 261.81640625 -147.63671875 261.81640625 -147 260 C-144.8125 259.25 -144.8125 259.25 -142 259 C-141.21625 259.66 -140.4325 260.32 -139.625 261 C-137.0611567 263.37246406 -137.0611567 263.37246406 -133.3125 263 C-129.9637214 262.38129741 -129.9637214 262.38129741 -128.8299408 260.16856384 C-125.60218987 251.73472857 -126.68734524 241.11048183 -126.46484375 232.15234375 C-126.42176296 230.52852005 -126.37834626 228.90470523 -126.33460999 227.28089905 C-126.2211335 223.03467918 -126.11218168 218.78835516 -126.00421143 214.54199219 C-125.89294047 210.19784369 -125.77733587 205.85381068 -125.66210938 201.50976562 C-125.43719434 193.00661678 -125.21706513 184.50335284 -125 176 C-126.76730317 177.44048288 -128.53383905 178.88190717 -130.30004883 180.32373047 C-131.28387039 181.12632294 -132.26769196 181.92891541 -133.28132629 182.75582886 C-136.16767051 185.13840621 -138.94230318 187.58235303 -141.6875 190.125 C-144.78462564 192.97207442 -147.88778403 195.80215459 -151.0625 198.5625 C-154.13329116 201.24073641 -157.20038702 203.92264222 -160.25 206.625 C-161.05953125 207.33914063 -161.8690625 208.05328125 -162.703125 208.7890625 C-166.54234219 212.48463551 -169.72829082 215.7357568 -170.375 221.125 C-169.94837411 225.53346755 -168.68689465 227.56835897 -166.25 231.140625 C-164.77350068 233.33691774 -163.74708873 235.4598983 -163 238 C-163.33 238.66 -163.66 239.32 -164 240 C-166.171875 240.33203125 -166.171875 240.33203125 -169 240 C-170.99266458 238.27000484 -172.56496045 236.68034253 -174.25 234.6875 C-174.97050537 233.86934814 -174.97050537 233.86934814 -175.70556641 233.03466797 C-179.4414659 228.75923479 -182.99742944 224.33832253 -186.5546875 219.9140625 C-189.94578421 215.8729153 -193.56006798 212.05944721 -197.17626953 208.22045898 C-202.05249431 203.01487642 -206.54392756 197.57009055 -211 192 C-211.33 191.67 -211.66 191.34 -212 191 C-212.04063832 189.33382885 -212.042721 187.66611905 -212 186 C-210.3125 185.1875 -210.3125 185.1875 -208 185 C-206.28641357 186.61838719 -204.6292274 188.29671681 -203 190 C-199.1752634 193.06624453 -196.35922116 194.97656515 -191.375 195.0625 C-185.00554096 193.05729993 -180.20672688 188.6286695 -175.25 184.3125 C-174.63729248 183.78358154 -174.02458496 183.25466309 -173.39331055 182.7097168 C-169.82624127 179.62055919 -166.30473219 176.48624062 -162.8125 173.3125 C-159.52057795 170.3208184 -156.15408693 167.47475577 -152.6875 164.6875 C-147.87254256 160.79614512 -143.34912829 156.66870856 -138.83447266 152.43994141 C-135.50897767 149.34263774 -132.11307457 146.40400241 -128.5625 143.5625 C-124.18748028 140.05356861 -120.07979091 136.34155495 -116 132.5 C-111.09037644 127.87706979 -106.05521692 123.5339901 -100.7890625 119.31640625 C-96.36265837 115.64013503 -92.19198888 111.69573628 -87.984375 107.7734375 C-83.37851774 103.48018201 -78.6189993 99.37670578 -73.82421875 95.296875 C-72.63254314 94.28156606 -71.4411459 93.26593033 -70.25 92.25 C-69.64639648 91.73526123 -69.04279297 91.22052246 -68.42089844 90.69018555 C-64.47534169 87.30910646 -60.61889068 83.84905793 -56.8125 80.3125 C-53.18716792 76.94416553 -49.48767607 73.7207798 -45.625 70.625 C-40.58423158 66.57204787 -35.8921232 62.22383154 -31.1875 57.79296875 C-27.76841396 54.59037505 -24.29349628 51.54437392 -20.625 48.625 C-15.73674632 44.70565502 -11.13843503 40.52492736 -6.5625 36.25 C-5.87559082 35.61143066 -5.18868164 34.97286133 -4.48095703 34.31494141 C2.69093224 27.93830031 2.69093224 27.93830031 6.4375 19.4375 C5.88365096 15.08582898 4.07559812 12.72562934 1.5078125 9.24609375 C-0.06109179 6.9089954 -1.0442388 4.63994234 -2 2 C-1.34 1.34 -0.68 0.68 0 0 Z " fill="#FFFFFF" transform="translate(228,102)"/>
</svg>
