<?xml version="1.0" encoding="UTF-8"?>
<svg version="1.1" xmlns="http://www.w3.org/2000/svg" width="256" height="181">
<path d="M0 0 C4.03499559 1.54766954 5.99128892 4.15280866 8.625 7.5 C11.66949282 11.37767542 11.66949282 11.37767542 15 15 C15 15.99 15 16.98 15 18 C12.61435923 17.42415568 10.33317216 16.77772405 8 16 C5.54626657 17.54353521 5.54626657 17.54353521 3 19.8125 C2.0203125 20.64394531 1.040625 21.47539063 0.03125 22.33203125 C-3.78152952 25.66333765 -7.5084638 29.08778669 -11.234375 32.515625 C-14.8790261 35.78963362 -18.66218927 38.87132361 -22.47265625 41.94921875 C-25.70401615 44.57126504 -28.8554947 47.27476207 -32 50 C-25.24903241 52.41105985 -19.13275314 53.35079114 -12 53 C-11.01 52.34 -10.02 51.68 -9 51 C-9.66 50.236875 -10.32 49.47375 -11 48.6875 C-13 46 -13 46 -13 43 C-9.65910848 43.56933217 -8.19665239 44.48021685 -6.01953125 47.0546875 C-5.49552734 47.66957031 -4.97152344 48.28445312 -4.43164062 48.91796875 C-3.63016602 49.88669922 -3.63016602 49.88669922 -2.8125 50.875 C-2.26658203 51.51308594 -1.72066406 52.15117188 -1.15820312 52.80859375 C2.85925752 57.57777256 2.85925752 57.57777256 4 61 C5.95597184 62.39712274 7.95436401 63.73779907 10 65 C11.62306462 59.11534448 13.22565395 53.2256358 14.80957031 47.33032227 C15.35118161 45.32587398 15.89834488 43.32291724 16.45117188 41.3215332 C17.24514887 38.4433666 18.01896223 35.56041515 18.7890625 32.67578125 C19.03999664 31.78288895 19.29093079 30.88999664 19.54946899 29.970047 C20.84649858 25.03135739 20.84649858 25.03135739 20.32568359 20.02026367 C19.00541031 17.72097928 19.00541031 17.72097928 16 16 C16.33 15.01 16.66 14.02 17 13 C22.54321063 13.58970326 27.88590286 14.70633841 33 17 C34.63309363 20.26618725 33.0329484 23.47185408 32.12890625 26.8515625 C31.82713722 28.01261002 31.82713722 28.01261002 31.51927185 29.19711304 C30.87364321 31.67486351 30.21819618 34.14989678 29.5625 36.625 C29.12370105 38.30191393 28.68554171 39.97899537 28.24804688 41.65625 C27.17278345 45.77281548 26.08870605 49.88697019 25 54 C25.46253174 53.59225342 25.92506348 53.18450684 26.40161133 52.7644043 C27.0180249 52.22726807 27.63443848 51.69013184 28.26953125 51.13671875 C29.17989136 50.33947388 29.17989136 50.33947388 30.10864258 49.52612305 C39.76078767 41.73787483 52.99406907 39.95220966 65 41 C77.00498576 42.83515706 88.09541109 47.59242587 96 57 C96.42410156 56.60167969 96.84820312 56.20335937 97.28515625 55.79296875 C104.61880145 49.16851122 111.28285692 47.50957893 121 47 C121 44.69 121 42.38 121 40 C121.66 39.67 122.32 39.34 123 39 C121.37680643 35.24921553 119.75113214 31.4995113 118.125 27.75 C117.66480469 26.68652344 117.20460937 25.62304688 116.73046875 24.52734375 C116.28574219 23.50253906 115.84101563 22.47773437 115.3828125 21.421875 C114.77010498 20.00793457 114.77010498 20.00793457 114.14501953 18.56542969 C113.15599748 16.34951419 112.0852139 14.17042781 111 12 C108.03 12 105.06 12 102 12 C101.67 10.68 101.34 9.36 101 8 C102.88923398 6.98758753 104.78669944 5.99052575 106.6875 5 C107.74324219 4.443125 108.79898438 3.88625 109.88671875 3.3125 C112.98303844 2.00715067 114.71724997 1.88319348 118 2 C119.71360021 5.94902814 121.42247068 9.90005812 123.12695312 13.85302734 C123.70768151 15.19799169 124.28970745 16.54239653 124.87304688 17.88623047 C125.71043745 19.81593154 126.54316833 21.74758484 127.375 23.6796875 C127.87773437 24.84226074 128.38046875 26.00483398 128.8984375 27.20263672 C130 30 130 30 130 32 C130.66 32 131.32 32 132 32 C132.3403125 30.88625 132.3403125 30.88625 132.6875 29.75 C134.266155 26.44234191 135.99614099 25.05141591 139 23 C144.1292104 21.2902632 149.06147216 21.35382405 154.1875 23.0625 C162.09431721 28.50941852 165.21050087 36.16251784 168.8125 44.75 C169.30169922 45.88566406 169.79089844 47.02132812 170.29492188 48.19140625 C173.74771933 56.243158 173.74771933 56.243158 175 60 C177.97 60 180.94 60 184 60 C184 61.32 184 62.64 184 64 C180.56631406 65.50884213 177.12746451 67.00553401 173.6875 68.5 C172.71103516 68.92925781 171.73457031 69.35851562 170.72851562 69.80078125 C169.79072266 70.20683594 168.85292969 70.61289063 167.88671875 71.03125 C167.02264404 71.40830078 166.15856934 71.78535156 165.26831055 72.17382812 C163 73 163 73 160 73 C159.67 72.01 159.34 71.02 159 70 C159.845625 69.484375 160.69125 68.96875 161.5625 68.4375 C162.7690625 67.2309375 162.7690625 67.2309375 164 66 C163.84845865 59.56791158 161.14584448 54.11390739 158.5625 48.3125 C158.15451172 47.37599609 157.74652344 46.43949219 157.32617188 45.47460938 C154.74892889 38.38127236 154.74892889 38.38127236 150.25 32.6875 C147.07357864 31.71692681 145.16398262 32.01125543 142 33 C139.08644846 36.07104081 137.11696579 38.47917361 136.78930664 42.73950195 C137.02415963 46.37387232 137.91433001 48.83840752 139.37109375 52.16796875 C139.86287109 53.30814453 140.35464844 54.44832031 140.86132812 55.62304688 C141.6415332 57.38745117 141.6415332 57.38745117 142.4375 59.1875 C143.45770517 61.53486347 144.47726727 63.88250656 145.49609375 66.23046875 C146.17949829 67.78350708 146.17949829 67.78350708 146.87670898 69.36791992 C148 72 148 72 149 75 C153.455 74.505 153.455 74.505 158 74 C158 75.32 158 76.64 158 78 C155.89915791 79.00696568 153.79420511 80.0053589 151.6875 81 C150.51574219 81.556875 149.34398437 82.11375 148.13671875 82.6875 C145 84 145 84 142 84 C142.08701172 84.94359375 142.08701172 84.94359375 142.17578125 85.90625 C142.5301637 92.62939135 141.48717479 96.89879077 137 102 C129.89520829 107.86917576 121.8557186 108.39146961 113 109 C113 110.65 113 112.3 113 114 C111.68 114 110.36 114 109 114 C107.08460953 109.03739743 105.39038565 104.13373162 104 99 C101.53701631 102.69447554 99.7094827 106.63118384 97.83007812 110.64257812 C93.28132749 120.01239927 86.26349404 126.33633998 76.375 129.8125 C63.34045116 133.93261601 47.78936605 133.56544426 35.38671875 127.78125 C24.90546433 122.05552679 19.27616202 113.93901911 15 103 C14.62617187 102.06671875 14.25234375 101.1334375 13.8671875 100.171875 C13.58101563 99.45515625 13.29484375 98.7384375 13 98 C12.65701742 102.028286 12.65701742 102.028286 13 106 C15.39583651 108.81331378 15.39583651 108.81331378 18 111 C18 111.99 18 112.98 18 114 C15.20452104 113.41037542 12.4145229 112.80415498 9.625 112.1875 C8.8309375 112.02185547 8.036875 111.85621094 7.21875 111.68554688 C6.45820312 111.51474609 5.69765625 111.34394531 4.9140625 111.16796875 C4.2123291 111.01610107 3.5105957 110.8642334 2.78759766 110.70776367 C1 110 1 110 -1 107 C-0.67 106.34 -0.34 105.68 0 105 C-1.485 105.495 -1.485 105.495 -3 106 C-9.05175226 106.54163704 -13.77747777 106.40071215 -19 103 C-19.86625 102.443125 -20.7325 101.88625 -21.625 101.3125 C-26.21453382 96.84374339 -28.22776749 92.15191001 -28.625 85.75 C-28.32876559 78.15370322 -24.87190327 70.28386433 -19.3125 65 C-14.77767401 62.26199186 -10.03310315 60.60307022 -5 59 C-6.07378906 59.08378906 -7.14757813 59.16757813 -8.25390625 59.25390625 C-9.69007622 59.3571603 -11.12627581 59.46000294 -12.5625 59.5625 C-13.61920898 59.64661133 -13.61920898 59.64661133 -14.69726562 59.73242188 C-19.31438431 60.05157754 -23.4408752 59.80878035 -28 59 C-28.86863645 66.26495938 -29.18271965 73.43606276 -29.1875 80.75 C-29.20586914 82.25240234 -29.20586914 82.25240234 -29.22460938 83.78515625 C-29.23482098 88.92499509 -29.06810479 93.19349559 -27 98 C-31 98 -31 98 -33.69140625 95.515625 C-34.65969857 94.43708814 -35.61639109 93.34804813 -36.5625 92.25 C-37.04396484 91.71117188 -37.52542969 91.17234375 -38.02148438 90.6171875 C-45 82.74595942 -45 82.74595942 -45 79 C-43.02 79.33 -41.04 79.66 -39 80 C-39 72.41 -39 64.82 -39 57 C-45.64944926 61.30650611 -45.64944926 61.30650611 -49.84375 67.59375 C-50.01608171 70.24765838 -49.66044292 72.43161086 -49 75 C-53.41678123 73.00887692 -56.02599516 70.09116558 -59.25 66.5625 C-60.08144531 65.68368164 -60.08144531 65.68368164 -60.9296875 64.78710938 C-65 60.37092057 -65 60.37092057 -65 57 C-61 58 -61 58 -59.05102539 58.67114258 C-56.66360051 59.29954999 -56.66360051 59.29954999 -53.93359375 56.82421875 C-52.75668258 55.79166006 -51.59196705 54.7450931 -50.4375 53.6875 C-49.81834717 53.13860107 -49.19919434 52.58970215 -48.5612793 52.02416992 C-46.69462269 50.36313139 -44.84488307 48.68516168 -43 47 C-42.48920898 46.5349707 -41.97841797 46.06994141 -41.45214844 45.59082031 C-39.1747078 43.51574966 -36.90207275 41.43557701 -34.6328125 39.3515625 C-32.04606963 37.04114825 -29.39317748 34.85677495 -26.6875 32.6875 C-21.58622432 28.57427628 -16.79565832 24.18830514 -12.03393555 19.69213867 C-11.20502808 18.91060425 -11.20502808 18.91060425 -10.359375 18.11328125 C-9.81474609 17.59975098 -9.27011719 17.0862207 -8.70898438 16.55712891 C-6.34704766 14.40506714 -3.87927654 12.38819982 -1.39160156 10.38354492 C0.27033432 8.93867762 0.27033432 8.93867762 1 6 C0.12085312 3.3430809 0.12085312 3.3430809 -1 1 C-0.67 0.67 -0.34 0.34 0 0 Z M40 57 C34.53757647 66.09093988 31.6043333 74.67437548 31.6875 85.25 C31.69168945 85.98726318 31.69587891 86.72452637 31.70019531 87.48413086 C31.93191029 98.82460698 34.89056956 110.65887154 43 119 C48.52561219 123.44451415 53.55264091 123.66830761 60.5546875 123.4453125 C67.99206334 122.48401902 73.16854658 118.71106366 77.72265625 112.8828125 C83.34095318 104.60140846 85.38683623 96.03932884 85.3125 86.125 C85.30686035 85.33416016 85.3012207 84.54332031 85.29541016 83.72851562 C85.08630501 73.65006169 82.35129143 64.99077881 76 57 C70.57131795 52.21405808 64.81801312 49.63394909 57.625 48.6875 C51.00794464 49.47524469 44.26513468 51.63609101 40 57 Z M127 48 C127.19916016 48.97839844 127.19916016 48.97839844 127.40234375 49.9765625 C128.34482822 54.6408287 129.25768703 59.29868454 130 64 C126.8129289 62.63017895 125.06713092 61.15774857 122.9375 58.4375 C120.87467786 55.80562347 120.28702382 55.09567461 117 54 C112.8264149 53.73073645 109.98742242 53.64284721 106.0625 55.0625 C103.70221569 56.95997145 103.70221569 56.95997145 102.9375 60.4375 C102.63708867 63.98960817 102.63708867 63.98960817 104.69921875 66.125 C107.16742624 68.13644244 108.80338086 68.82026984 111.875 69.5625 C113.31552734 69.92214844 113.31552734 69.92214844 114.78515625 70.2890625 C117.0576678 70.79161062 119.33727835 71.26255087 121.62109375 71.7109375 C129.32807375 73.2278669 134.38952905 74.38952905 140 80 C139.41364787 75.54839132 138.2699732 71.84522514 136.49609375 67.7265625 C135.75649414 65.99599609 135.75649414 65.99599609 135.00195312 64.23046875 C134.48568359 63.04066406 133.96941406 61.85085937 133.4375 60.625 C132.91736328 59.41199219 132.39722656 58.19898438 131.86132812 56.94921875 C130.58008244 53.96356367 129.29280626 50.98066312 128 48 C127.67 48 127.34 48 127 48 Z M-12.7421875 69.62109375 C-17.17914874 74.55694776 -18.32770227 78.16763125 -18.21484375 84.9140625 C-17.58376573 91.0412564 -14.51194762 95.0665072 -10 99 C-6.90826248 100.54586876 -4.40570448 100.29359521 -1 100 C5.41505437 95.15867619 6.36619669 85.51221442 7.42578125 77.96875 C7.65715436 73.57927153 7.43044466 71.62034671 4.875 67.9375 C-1.40771606 63.7034957 -7.27371947 64.53272103 -12.7421875 69.62109375 Z M104 80 C103.69636306 85.59049188 103.72660353 88.68567252 107.1875 93.3125 C108.07501953 94.54419922 108.07501953 94.54419922 108.98046875 95.80078125 C113.01293117 100.19203143 116.98746802 101.60474749 122.78125 102.05859375 C126.23866687 101.96728873 128.25860613 101.07276122 131 99 C132.73801735 96.20301296 132.73801735 96.20301296 133 93 C131.29931336 88.6982632 129.05848581 87.02405302 125 85 C121.43235272 83.93700769 117.82034333 83.12006961 114.1875 82.3125 C112.71893555 81.97508789 112.71893555 81.97508789 111.22070312 81.63085938 C108.81546782 81.07941518 106.40869787 80.53607924 104 80 Z " fill="#FFFFFF" transform="translate(69,30)"/>
</svg>
